<?xml version="1.0" encoding="utf-8"?>
<!-- Svg Vector Icons : http://www.onlinewebfonts.com/icon -->
<!DOCTYPE svg PUBLIC "-//W3C//DTD SVG 1.1//EN" "http://www.w3.org/Graphics/SVG/1.1/DTD/svg11.dtd">
<svg version="1.1" xmlns="http://www.w3.org/2000/svg" xmlns:xlink="http://www.w3.org/1999/xlink" x="0px" y="0px"
   viewBox="0 0 1000 1000" enable-background="new 0 0 1000 1000" xml:space="preserve" fill="#fff" width="50"
   height="50">
   <metadata> Svg Vector Icons : http://www.onlinewebfonts.com/icon </metadata>
   <g>
      <g transform="translate(0.000000,512.000000) scale(0.100000,-0.100000)">
         <path
            d="M5469.9,5009.6c-90.1-23-214.8-94-293.4-163c-38.4-34.5-692.3-560-1453.7-1167.9L2340,2574l-889.9-5.8l-889.9-5.8l-105.5-49.9c-153.4-71-220.5-138.1-291.5-281.9L100,2102.2V117.3v-1984.9l63.3-128.5c69-140,151.5-218.6,304.9-289.6c90.1-42.2,107.4-42.2,981.9-47.9l891.8-5.8l1474.8-1179.4c811.2-650.1,1515.1-1200.6,1564.9-1221.7c65.2-30.7,126.6-42.2,232.1-42.2c247.4,0,448.8,126.6,554.2,352.9l49.9,107.4V126.9v4449.3l-46,86.3c-80.5,151.5-151.5,226.3-280,289.6C5761.4,5015.4,5583,5040.3,5469.9,5009.6z M5000,117.3c0-1655-3.8-3010.9-9.6-3010.9c-7.7,0-1563,1244.6-2100,1681.9c-115.1,92.1-201.4,101.6-920.5,101.6h-652.1V117.3v1225.5l684.7,5.8l686.6,5.7l105.5,51.8c61.4,30.7,535.1,397,1141.1,886c569.6,458.4,1041.4,834.2,1051,834.2C4994.2,3128.2,5000,1774.3,5000,117.3z" />
         <path
            d="M7309,1941.1c-90.1-23-255.1-118.9-306.8-180.3c-26.9-32.6-71-101.6-99.7-155.3c-44.1-84.4-49.9-120.8-49.9-270.4c0-130.4,7.7-187.9,34.5-237.8c19.2-36.4,189.9-272.3,377.8-523.6l343.3-456.4l-343.3-456.4c-187.9-251.3-358.6-487.1-377.8-523.6c-24.9-47.9-34.5-109.3-36.4-228.2c0-147.7,5.8-176.4,63.3-291.5c163-329.9,586.9-441.1,880.3-228.2c42.2,30.7,187.9,199.5,324.1,374c136.2,174.5,251.2,318.4,257,318.4s118.9-143.8,249.3-320.3c132.3-178.3,257-337.5,278.1-356.7c141.9-128.5,446.9-161.1,644.4-69c226.3,105.5,352.9,306.8,352.9,554.3c-1.9,187.9-13.4,211-425.8,772.9l-333.7,454.5l333.7,456.4c412.3,560,425.8,583,425.8,771c0,243.6-115.1,435.3-324.1,537c-214.8,105.5-441.1,92.1-619.4-36.4c-42.2-30.7-187.9-199.5-324.1-374c-136.2-174.5-251.2-318.4-258.9-318.4c-5.8,0-120.8,143.8-255.1,318.4s-280,341.4-324.1,374C7661.9,1941.1,7472.1,1979.5,7309,1941.1z" />
      </g>
   </g>
</svg>