<?xml version="1.0" encoding="utf-8"?>
<!-- Svg Vector Icons : http://www.onlinewebfonts.com/icon -->
<!DOCTYPE svg PUBLIC "-//W3C//DTD SVG 1.1//EN" "http://www.w3.org/Graphics/SVG/1.1/DTD/svg11.dtd">
<svg version="1.1" xmlns="http://www.w3.org/2000/svg" xmlns:xlink="http://www.w3.org/1999/xlink" x="0px" y="0px"
   viewBox="0 0 1000 1000" enable-background="new 0 0 1000 1000" xml:space="preserve" fill="#fff" width="50"
   height="50">
   <metadata> Svg Vector Icons : http://www.onlinewebfonts.com/icon </metadata>
   <g>
      <g>
         <path
            d="M811.7,869.3c-11.1,0-22.1-4.2-30.6-12.7c-16.9-16.9-16.9-44.3,0-61.1c78.9-78.9,122.4-183.9,122.4-295.5c0-111.6-43.5-216.6-122.4-295.5c-16.9-16.9-16.9-44.3,0-61.1c16.9-16.9,44.3-16.9,61.1,0C937.5,238.6,990,365.3,990,500s-52.5,261.4-147.7,356.7C833.8,865.1,822.8,869.3,811.7,869.3L811.7,869.3z M658.1,787.8c-11.1,0-22.1-4.2-30.6-12.7c-16.9-16.9-16.9-44.3,0-61.1c118-118,118-310,0-428c-16.9-16.9-16.9-44.3,0-61.1c16.9-16.9,44.3-16.9,61.1,0c73.5,73.5,114,171.2,114,275.1c0,103.9-40.5,201.7-114,275.1C680.2,783.6,669.2,787.8,658.1,787.8L658.1,787.8L658.1,787.8z M504.5,706.3c-11.1,0-22.1-4.2-30.6-12.7c-16.9-16.9-16.9-44.3,0-61.1c73-73,73-191.9,0-265c-16.9-16.9-16.9-44.3,0-61.1c16.9-16.9,44.3-16.9,61.1,0c106.8,106.8,106.8,280.5,0,387.2C526.7,702.1,515.6,706.3,504.5,706.3z" />
         <path
            d="M384.7,903.5c-7.5,0-14.9-2.9-20.4-8.4L142.2,672.9H38.8C22.9,672.9,10,660,10,644.1V355.9c0-15.9,12.9-28.8,28.8-28.8h103.4l222.1-222.1c8.2-8.2,20.6-10.7,31.4-6.2c10.8,4.5,17.8,15,17.8,26.6v749.4c0,11.7-7,22.2-17.8,26.6C392.2,902.8,388.4,903.5,384.7,903.5z" />
      </g>
   </g>
</svg>